<?xml version="1.0" encoding="UTF-8"?>
<svg xmlns="http://www.w3.org/2000/svg" xmlns:xlink="http://www.w3.org/1999/xlink" width="1920" height="1080" viewBox="0 0 1920 1080">
<defs>
<g>
<g id="glyph-0-0">
<path d="M 0.0820312 -0.765625 L 1.730469 -0.765625 L 1.730469 -0.964844 L 2.40625 -1.34375 L 0.746094 -1.34375 L 0.746094 -1.601562 L 2.816406 -1.601562 L 2.816406 -1.304688 L 2.015625 -0.84375 L 2.015625 -0.765625 L 3.53125 -0.765625 L 3.53125 -0.507812 L 2.015625 -0.507812 L 2.015625 0.0234375 C 2.015625 0.300781 1.878906 0.4375 1.597656 0.4375 C 1.441406 0.4375 1.261719 0.4375 1.050781 0.433594 C 1.042969 0.351562 1.03125 0.253906 1.007812 0.132812 C 1.195312 0.152344 1.375 0.160156 1.546875 0.164062 C 1.671875 0.167969 1.730469 0.101562 1.730469 -0.03125 L 1.730469 -0.507812 L 0.0820312 -0.507812 L 0.0820312 -0.765625 M 0.199219 -2.207031 L 3.417969 -2.207031 L 3.417969 -1.492188 L 3.136719 -1.492188 L 3.136719 -1.949219 L 0.480469 -1.949219 L 0.480469 -1.492188 L 0.199219 -1.492188 L 0.199219 -2.207031 M 2.433594 -2.410156 C 2.589844 -2.578125 2.738281 -2.761719 2.878906 -2.957031 L 3.132812 -2.769531 C 2.976562 -2.597656 2.816406 -2.414062 2.640625 -2.222656 L 2.433594 -2.410156 M 1.429688 -2.886719 L 1.660156 -3.019531 C 1.804688 -2.832031 1.9375 -2.640625 2.058594 -2.445312 L 1.804688 -2.300781 C 1.703125 -2.484375 1.578125 -2.679688 1.429688 -2.886719 M 0.480469 -2.78125 L 0.6875 -2.933594 C 0.832031 -2.773438 0.972656 -2.605469 1.109375 -2.421875 L 0.871094 -2.25 C 0.738281 -2.453125 0.609375 -2.628906 0.480469 -2.78125 Z "/>
</g>
<g id="glyph-0-1">
<path d="M 1.582031 0.449219 L 1.316406 0.449219 L 1.316406 -1.339844 L 3.296875 -1.339844 L 3.296875 0.0234375 C 3.296875 0.285156 3.179688 0.417969 2.941406 0.421875 C 2.785156 0.421875 2.585938 0.421875 2.339844 0.421875 C 2.328125 0.347656 2.3125 0.253906 2.289062 0.148438 C 2.511719 0.164062 2.695312 0.171875 2.835938 0.171875 C 2.964844 0.171875 3.027344 0.113281 3.027344 0 L 3.027344 -0.1875 L 1.582031 -0.1875 L 1.582031 0.449219 M 1.085938 -1.773438 L 2.164062 -1.773438 L 2.164062 -2.019531 L 1.277344 -2.019531 L 1.277344 -2.242188 L 2.164062 -2.242188 L 2.164062 -2.476562 L 1.175781 -2.476562 L 1.175781 -2.699219 L 2.164062 -2.699219 L 2.164062 -3.015625 L 2.433594 -3.015625 L 2.433594 -2.699219 L 3.492188 -2.699219 L 3.492188 -2.476562 L 2.433594 -2.476562 L 2.433594 -2.242188 L 3.390625 -2.242188 L 3.390625 -2.019531 L 2.433594 -2.019531 L 2.433594 -1.773438 L 3.566406 -1.773438 L 3.566406 -1.554688 L 1.085938 -1.554688 L 1.085938 -1.773438 M 0.523438 -2.984375 L 0.777344 -2.984375 L 0.777344 -2.265625 L 0.910156 -2.363281 C 1.03125 -2.222656 1.136719 -2.09375 1.230469 -1.972656 L 1.03125 -1.828125 C 0.960938 -1.933594 0.875 -2.054688 0.777344 -2.183594 L 0.777344 0.460938 L 0.523438 0.460938 L 0.523438 -2.984375 M 3.027344 -1.113281 L 1.582031 -1.113281 L 1.582031 -0.871094 L 3.027344 -0.871094 L 3.027344 -1.113281 M 1.582031 -0.40625 L 3.027344 -0.40625 L 3.027344 -0.652344 L 1.582031 -0.652344 L 1.582031 -0.40625 M 0.179688 -2.179688 L 0.40625 -2.152344 C 0.378906 -1.867188 0.335938 -1.566406 0.277344 -1.246094 C 0.222656 -1.261719 0.148438 -1.277344 0.0507812 -1.296875 C 0.101562 -1.527344 0.144531 -1.820312 0.179688 -2.179688 Z "/>
</g>
<g id="glyph-0-2">
<path d="M 0.507812 -1.445312 L 2.851562 -1.445312 C 2.839844 -1.042969 2.824219 -0.652344 2.800781 -0.273438 C 2.769531 0.167969 2.5625 0.386719 2.175781 0.382812 C 1.984375 0.386719 1.785156 0.378906 1.574219 0.363281 C 1.558594 0.265625 1.542969 0.167969 1.523438 0.0664062 C 1.703125 0.0898438 1.90625 0.105469 2.128906 0.109375 C 2.363281 0.113281 2.492188 -0.0234375 2.519531 -0.304688 C 2.535156 -0.558594 2.550781 -0.851562 2.558594 -1.183594 L 1.476562 -1.183594 C 1.449219 -0.789062 1.367188 -0.472656 1.230469 -0.234375 C 1.050781 0.0820312 0.753906 0.324219 0.332031 0.496094 C 0.269531 0.414062 0.203125 0.335938 0.128906 0.257812 C 0.519531 0.113281 0.800781 -0.0976562 0.972656 -0.375 C 1.097656 -0.585938 1.167969 -0.855469 1.1875 -1.183594 L 0.507812 -1.183594 L 0.507812 -1.445312 M 1.96875 -2.910156 L 2.222656 -3.019531 C 2.480469 -2.390625 2.933594 -1.917969 3.582031 -1.605469 C 3.476562 -1.496094 3.398438 -1.40625 3.351562 -1.339844 C 2.707031 -1.710938 2.246094 -2.234375 1.96875 -2.910156 M 0.0273438 -1.558594 C 0.511719 -1.902344 0.925781 -2.371094 1.269531 -2.964844 L 1.519531 -2.824219 C 1.164062 -2.199219 0.734375 -1.699219 0.234375 -1.320312 C 0.183594 -1.394531 0.113281 -1.472656 0.0273438 -1.558594 Z "/>
</g>
<g id="glyph-0-3">
<path d="M 1.566406 -2.707031 C 2.144531 -2.714844 2.726562 -2.765625 3.308594 -2.859375 L 3.402344 -2.605469 C 2.90625 -2.53125 2.386719 -2.484375 1.835938 -2.460938 L 1.835938 -1.671875 L 3.558594 -1.671875 L 3.558594 -1.414062 L 2.894531 -1.414062 L 2.894531 0.460938 L 2.625 0.460938 L 2.625 -1.414062 L 1.835938 -1.414062 L 1.835938 -1.28125 C 1.835938 -0.519531 1.644531 0.0703125 1.253906 0.480469 C 1.195312 0.398438 1.136719 0.320312 1.070312 0.25 C 1.402344 -0.105469 1.566406 -0.617188 1.566406 -1.285156 L 1.566406 -2.707031 M 0.0507812 -0.785156 C 0.292969 -1.140625 0.476562 -1.554688 0.601562 -2.023438 L 0.0976562 -2.023438 L 0.0976562 -2.265625 L 0.609375 -2.265625 L 0.609375 -2.96875 L 0.867188 -2.96875 L 0.867188 -2.265625 L 1.355469 -2.265625 L 1.355469 -2.023438 L 0.867188 -2.023438 L 0.867188 -1.621094 L 0.996094 -1.722656 C 1.210938 -1.472656 1.367188 -1.269531 1.464844 -1.121094 L 1.246094 -0.957031 C 1.132812 -1.132812 1.007812 -1.3125 0.867188 -1.5 L 0.867188 0.460938 L 0.609375 0.460938 L 0.609375 -1.351562 C 0.488281 -1 0.34375 -0.707031 0.171875 -0.472656 C 0.144531 -0.554688 0.101562 -0.65625 0.0507812 -0.785156 Z "/>
</g>
</g>
</defs>
<g fill="rgb(37.254902%, 38.823529%, 40.784314%)" fill-opacity="1">
<use xlink:href="#glyph-0-0" x="30" y="23.820312"/>
<use xlink:href="#glyph-0-1" x="34" y="23.820312"/>
<use xlink:href="#glyph-0-2" x="38" y="23.820312"/>
<use xlink:href="#glyph-0-3" x="42" y="23.820312"/>
</g>
</svg>
