<?xml version="1.0" encoding="UTF-8"?>
<svg xmlns="http://www.w3.org/2000/svg" xmlns:xlink="http://www.w3.org/1999/xlink" width="1920" height="1080" viewBox="0 0 1920 1080">
<defs>
<g>
<g id="glyph-0-0">
<path d="M 1.855469 -3.46875 L 2.585938 -3.46875 C 2.664062 -3.695312 2.742188 -3.929688 2.816406 -4.167969 L 3.1875 -4.066406 C 3.117188 -3.863281 3.046875 -3.664062 2.976562 -3.46875 L 4.84375 -3.46875 L 4.84375 -3.121094 L 2.847656 -3.121094 C 2.699219 -2.71875 2.554688 -2.332031 2.414062 -1.964844 L 3.222656 -1.964844 L 3.222656 -2.804688 L 3.59375 -2.804688 L 3.59375 -1.964844 L 4.808594 -1.964844 L 4.808594 -1.613281 L 3.59375 -1.613281 L 3.59375 -0.0351562 C 3.59375 0.34375 3.402344 0.535156 3.015625 0.535156 C 2.800781 0.535156 2.589844 0.53125 2.390625 0.53125 C 2.375 0.394531 2.347656 0.261719 2.320312 0.125 C 2.546875 0.152344 2.746094 0.164062 2.914062 0.164062 C 3.121094 0.164062 3.222656 0.0625 3.222656 -0.144531 L 3.222656 -1.613281 L 1.988281 -1.613281 L 1.988281 -1.96875 C 2.15625 -2.339844 2.3125 -2.722656 2.460938 -3.121094 L 1.855469 -3.121094 L 1.855469 -3.46875 M 1.742188 -1.179688 C 1.835938 -0.605469 1.683594 -0.28125 1.285156 -0.207031 C 1.15625 -0.183594 0.992188 -0.183594 0.789062 -0.203125 C 0.765625 -0.335938 0.730469 -0.472656 0.683594 -0.613281 C 0.84375 -0.574219 0.992188 -0.5625 1.132812 -0.574219 C 1.359375 -0.59375 1.429688 -0.800781 1.351562 -1.195312 C 1.308594 -1.457031 1.160156 -1.75 0.914062 -2.074219 C 1.058594 -2.554688 1.191406 -3.027344 1.3125 -3.492188 L 0.679688 -3.492188 L 0.679688 0.601562 L 0.3125 0.601562 L 0.3125 -3.835938 L 1.71875 -3.835938 L 1.71875 -3.492188 C 1.496094 -2.765625 1.359375 -2.3125 1.296875 -2.136719 C 1.566406 -1.785156 1.714844 -1.464844 1.742188 -1.179688 M 3.886719 -1.007812 L 4.195312 -1.238281 C 4.5 -0.820312 4.75 -0.453125 4.941406 -0.128906 L 4.625 0.0859375 C 4.34375 -0.386719 4.097656 -0.75 3.886719 -1.007812 M 2.480469 -1.199219 L 2.796875 -1.003906 C 2.523438 -0.601562 2.265625 -0.242188 2.015625 0.0703125 C 1.90625 -0.00390625 1.796875 -0.078125 1.6875 -0.148438 C 1.960938 -0.449219 2.222656 -0.796875 2.480469 -1.199219 Z "/>
</g>
<g id="glyph-0-1">
<path d="M 0.125 -2.273438 L 1.804688 -2.457031 L 1.804688 -4.117188 L 2.246094 -4.117188 L 2.246094 -2.503906 L 4.828125 -2.789062 L 4.863281 -2.394531 L 2.246094 -2.101562 L 2.246094 -0.359375 C 2.246094 -0.0585938 2.410156 0.0898438 2.738281 0.0898438 L 3.703125 0.0898438 C 4.050781 0.0898438 4.242188 -0.0117188 4.277344 -0.21875 C 4.320312 -0.445312 4.355469 -0.703125 4.382812 -0.988281 C 4.507812 -0.933594 4.648438 -0.878906 4.808594 -0.824219 C 4.757812 -0.484375 4.707031 -0.210938 4.652344 -0.0078125 C 4.566406 0.332031 4.296875 0.5 3.84375 0.5 L 2.632812 0.5 C 2.082031 0.5 1.804688 0.246094 1.804688 -0.261719 L 1.804688 -2.050781 L 0.164062 -1.867188 Z "/>
</g>
</g>
</defs>
<g fill="rgb(100%, 100%, 100%)" fill-opacity="1">
<use xlink:href="#glyph-0-0" x="30" y="25.291016"/>
<use xlink:href="#glyph-0-1" x="35" y="25.291016"/>
</g>
</svg>
